<?xml version="1.0" encoding="UTF-8"?>
<svg xmlns="http://www.w3.org/2000/svg" viewBox="0 0 64 64" width="64" height="64">
  <!-- Shaka hand - hang loose / aloha symbol -->
  <!-- Black and white version for MeshForge -->
  <g fill="none" stroke="#000" stroke-width="2" stroke-linecap="round" stroke-linejoin="round">
    <!-- Palm -->
    <path d="M32 48 C24 48 18 42 18 34 L18 28 C18 24 20 22 24 22 L40 22 C44 22 46 24 46 28 L46 34 C46 42 40 48 32 48 Z"/>

    <!-- Thumb (extended out) -->
    <path d="M18 30 C14 28 10 26 8 28 C6 30 6 34 8 36 C10 38 14 38 18 36"/>

    <!-- Pinky (extended up) -->
    <path d="M42 22 L44 12 C44 10 46 8 48 8 C50 8 52 10 52 12 L50 22"/>

    <!-- Folded fingers (middle 3) -->
    <path d="M26 22 L26 18 C26 16 28 15 30 16 L30 22"/>
    <path d="M32 22 L32 16 C32 14 34 13 36 14 L36 22"/>
    <path d="M38 22 L38 17 C38 15 40 14 42 15 L42 22"/>

    <!-- Wrist -->
    <path d="M24 48 L24 56 L40 56 L40 48"/>
  </g>
</svg>
